<?xml version="1.0" encoding="UTF-8"?>
<svg id="Camada_2" data-name="Camada 2" xmlns="http://www.w3.org/2000/svg" viewBox="0 0 651.4 249.75">
  <defs>
    <style>
      .cls-1 {
        fill: #6e3d2c;
      }

      .cls-2 {
        letter-spacing: .44em;
      }

      .cls-3 {
        letter-spacing: .44em;
      }

      .cls-4 {
        letter-spacing: .41em;
      }

      .cls-5 {
        fill: #e2a23e;
        font-family: Satoshi-Black, Satoshi;
        font-size: 29.77px;
        font-weight: 800;
      }

      .cls-6 {
        letter-spacing: .43em;
      }
    </style>
  </defs>
  <g id="Camada_1-2" data-name="Camada 1">
    <g>
      <path class="cls-1" d="M66.05,89.04c-11.96,0-21.5-3.51-28.34-10.42-7.08-7.01-10.67-16.87-10.67-29.33s3.92-22.34,11.65-29.42c3.4-3.17,7.42-5.59,11.94-7.19,4.54-1.61,9.39-2.43,14.4-2.43,9.79,0,17.91,2.39,24.13,7.1,6.22,4.72,9.25,10.35,9.25,17.23,0,5.11-1.5,8.76-4.58,11.16-3.12,2.42-7.45,3.65-12.86,3.65-2.95,0-5.96-.74-8.96-2.21-3.38-1.65-4.63-2.89-5.07-3.68,0-3.12.06-5.62.18-7.43l.04-.67-.6-.29c-.23-.11-.5-.16-.86-.16h-.42c-.87,0-1.58.27-2.12.8-.48.48-.85,1.31-1.16,2.6-.18.74-.42,2.48-.42,9.04,0,15.99,1.86,18.19,3.88,18.19.59,0,1.13-.15,1.61-.45l.47-.29v-5.46c2.58-1.63,6.15-3,10.64-4.06,4.64-1.1,9.23-1.67,13.63-1.71,1.88,2.04,3.48,5.06,4.78,8.99,1.34,4.08,2.08,7.81,2.19,11.11-.76,1.43-2.01,3-3.73,4.66-1.83,1.77-4.07,3.44-6.67,4.95-6.45,3.81-13.95,5.73-22.32,5.73Z"/>
      <path class="cls-1" d="M151.1,88.5c-2.84,0-5.48-.68-7.83-2.02-2.33-1.33-3.96-3.21-4.96-5.73l-.25-.63h-.68c-1.9,0-3.04,1.11-3.04,2.98,0,1.13.5,2.29,1.53,3.54-2.4,1.24-5.82,1.87-10.17,1.87-7.1,0-12.83-1.94-17.03-5.76-4.17-3.8-6.29-9.21-6.29-16.09s2.24-12.24,6.65-15.98c4.06-3.38,9.43-5.09,15.95-5.09,2.25,0,4.46.16,6.56.47,1.7.33,2.11.42,2.19.45l.94.26.3-.93c.15-.5.22-.93.22-1.3,0-1.08-.6-2.5-3.44-3.08-1.81-.37-4.2-.56-7.09-.56-5.77,0-10.83,1.11-15.06,3.3-1.55-3.01-2.33-6.78-2.33-11.23,0-2.49.28-4.39.82-5.65,2.76-1.23,6.27-2.33,10.44-3.29,4.33-1,8.98-1.5,13.79-1.5,9.85,0,17.37,2.16,22.35,6.41,4.93,4.21,7.44,10.3,7.44,18.11v11.74c0,2.98.34,5.43,1.02,7.29.66,1.81,1.78,3.27,3.34,4.36,0,.14,0,.32,0,.57v1.08c0,5.35-1.62,9.56-4.83,12.5-2.83,2.61-6.39,3.93-10.58,3.93ZM132.06,60.71c-2.23,0-3.52,1.19-3.52,3.28,0,.95.38,3.16,3.93,3.16,1.63,0,2.88-.44,3.71-1.29.83-.86,1.24-2.22,1.24-4.14v-1h-5.37Z"/>
      <path class="cls-1" d="M220.67,88.5c-4.73,0-8.61-1.34-11.52-3.99-3.4-3.03-5.12-7.73-5.12-13.99,0-2.75.13-5.2.38-7.28.26-2.14.44-3.67.54-4.59.1-.9.21-1.75.33-2.54.13-.86.19-2.06.19-3.68,0-1.76-.25-3.03-.78-3.88-.6-.98-1.5-1.49-2.59-1.49-.91,0-1.73.21-2.44.61l-.55.31.82,10.27c-.71,4.04-1.07,8.36-1.07,12.87s.95,8.48,2.82,12.15c-3.67,3.48-8.79,5.24-15.24,5.24-3.8,0-7.13-1-9.9-2.99-3.19-2.22-4.73-5.07-4.73-8.71v-29.31l-.19-.26c-2.22-3.12-3.35-7.05-3.35-11.67s1.04-8.33,3.08-11.61h10.12c2.25,0,4.16.71,5.82,2.18-1.48,1.54-2.2,2.88-2.2,4.07,0,1.79,1.16,2.86,3.1,2.86h.58l.29-.5c1.66-2.86,4.24-5.27,7.67-7.17,3.45-1.9,7.42-2.87,11.82-2.87,6.65,0,12.1,1.64,16.21,4.88,5.15,4.05,7.76,10.48,7.76,19.1l-.18,12.26c0,2.99.34,5.44,1.02,7.3.66,1.81,1.78,3.27,3.34,4.36,0,.14,0,.32,0,.57v1.08c0,5.2-1.5,9.28-4.46,12.13-2.97,2.85-6.86,4.3-11.58,4.3Z"/>
      <path class="cls-1" d="M265.23,88.5c-6.27,0-11.32-1.75-15.01-5.21-3.67-3.44-5.52-8.63-5.52-15.41v-16.31h2.71c3.48,0,4-1.86,4-2.98,0-.25-.05-.55-.15-.96l-.19-.76h-13.45c-.71-2.51-1.06-5.32-1.06-8.37s.22-5.77.66-7.79c2.26-1.45,5.33-3.6,9.12-6.41l.22-.17.11-.26c1.13-2.74,2.61-7.12,4.4-13.03.18-.61.39-1.2.62-1.78,2.91-.69,6.24-1.05,9.93-1.05s7.26.36,10.8,1.07v14.86h10.81c2,3.24,3.02,7.07,3.02,11.4,0,2.06-.29,4.21-.87,6.39-.51,1.95-1.23,3.65-2.14,5.06h-9.03v10.04c0,7.16,4.03,8.67,7.41,8.67h1.81c.68,2.63,1.03,4.95,1.03,6.91,0,5.25-1.58,9.14-4.83,11.91-3.25,2.76-8.09,4.16-14.39,4.16Z"/>
      <path class="cls-1" d="M308.42,88.5c-4.66,0-8.54-1.33-11.53-3.94-3.79-3.34-5.71-8.32-5.71-14.82V31.33c.53-.34,1.1-.62,1.69-.85.87-.33,1.79-.75,2.74-1.25l1.72-.9-1.72-.88c-1.55-.79-2.99-2.22-4.29-4.23-1.29-2-1.94-4.39-1.94-7.1,0-4.79,1.53-8.59,4.67-11.62,3.11-2.99,6.97-4.51,11.49-4.51s8.3,1.5,11.39,4.59c3.09,3.09,4.59,6.87,4.59,11.54,0,3.69-1.17,6.97-3.48,9.75-2.32,2.78-5.17,4.56-8.49,5.26l-.79.17v.81c0,2.96,1.92,3.28,2.74,3.28,2.04,0,4.13-.72,6.2-2.15,1.11.88,1.67,1.38,1.96,1.66v23.33c0,6.01,1.47,10.1,4.36,12.19,0,.14.01.33.01.57v1.08c0,5.55-1.5,9.76-4.47,12.5-2.76,2.61-6.51,3.93-11.15,3.93Z"/>
      <path class="cls-1" d="M378.38,88.5c-4.73,0-8.61-1.34-11.52-3.99-3.4-3.03-5.12-7.73-5.12-13.99,0-2.75.13-5.2.38-7.28.26-2.14.44-3.67.54-4.59.1-.9.21-1.75.32-2.54.13-.86.19-2.06.19-3.68,0-1.76-.25-3.03-.78-3.88-.6-.98-1.5-1.49-2.59-1.49-.91,0-1.73.21-2.44.61l-.55.31.82,10.27c-.71,4.04-1.07,8.36-1.07,12.87s.95,8.48,2.82,12.15c-3.67,3.48-8.79,5.24-15.24,5.24-3.8,0-7.13-1-9.9-2.99-3.19-2.22-4.73-5.07-4.73-8.71v-29.31l-.19-.26c-2.22-3.12-3.35-7.05-3.35-11.67s1.04-8.33,3.08-11.61h10.12c2.25,0,4.16.71,5.82,2.18-1.48,1.54-2.2,2.87-2.2,4.07,0,1.79,1.16,2.86,3.1,2.86h.58l.29-.5c1.66-2.86,4.24-5.27,7.67-7.17,3.45-1.9,7.42-2.87,11.83-2.87,6.64,0,12.1,1.64,16.21,4.88,5.15,4.05,7.76,10.48,7.76,19.1l-.18,12.26c0,2.99.34,5.45,1.02,7.3.65,1.81,1.78,3.27,3.34,4.36,0,.14,0,.32,0,.57v1.08c0,5.2-1.5,9.28-4.46,12.13-2.97,2.85-6.86,4.3-11.58,4.3Z"/>
      <path class="cls-1" d="M447.61,88.5c-4.73,0-8.61-1.34-11.52-3.99-3.4-3.03-5.12-7.74-5.12-13.99,0-2.74.13-5.19.38-7.28.26-2.14.44-3.67.54-4.59.1-.91.21-1.75.32-2.54.13-.86.19-2.06.19-3.68,0-1.76-.25-3.03-.78-3.88-.6-.98-1.5-1.49-2.59-1.49-.91,0-1.73.21-2.44.61l-.55.31.82,10.27c-.71,4.04-1.07,8.36-1.07,12.87s.95,8.48,2.82,12.15c-3.67,3.48-8.79,5.24-15.24,5.24-3.8,0-7.13-1-9.9-2.99-3.19-2.22-4.73-5.07-4.73-8.71V7.49c1.74-.94,3.81-1.74,6.18-2.37,2.6-.69,5.26-1.04,7.92-1.04,4.39,0,8.04.86,10.87,2.55,3.09,1.93,4.61,4.63,4.61,8.25v4.77c-3.28.32-6.47,1.35-9.49,3.05-3.13,1.81-4.64,3.53-4.64,5.24,0,.69.26,1.33.75,1.85.47.5,1.04.81,1.69.93l.56.1.37-.43c1.57-1.83,3.84-3.39,6.73-4.64,2.91-1.26,6.44-1.89,10.48-1.89s7.74.62,10.96,1.85c4.03,1.52,7.25,3.87,9.56,6.97,2.77,3.79,4.17,8.65,4.17,14.44l-.18,11.67c0,3,.34,5.45,1.02,7.3.66,1.81,1.78,3.27,3.34,4.36,0,.14,0,.32,0,.57v1.08c0,5.2-1.5,9.28-4.45,12.13-2.97,2.85-6.87,4.3-11.59,4.3Z"/>
      <path class="cls-1" d="M499.39,89.28c-9.87,0-17.77-2.83-23.5-8.4-6.32-6.09-9.52-14.48-9.52-24.95s3.02-18.85,8.97-24.87c5.94-6.02,13.88-9.08,23.58-9.08s17.63,3.18,23.59,9.45c5.94,6.28,8.95,14.61,8.95,24.74s-2.9,18.27-8.61,24.19c-5.71,5.92-13.6,8.92-23.45,8.92ZM498.5,43.94c-.82,0-1.56.31-2.15.89l-.33.33.04.47c.35,3.9.53,7.07.53,9.43v10.89l.29.29c.47.47,1.17.71,2.09.71,1.25,0,1.9-.61,2.22-1.12.39-.61.58-1.53.58-2.81v-8.56c0-3.95-.17-6.53-.51-7.88-.59-2.3-1.98-2.64-2.77-2.64Z"/>
      <path class="cls-1" d="M564.98,89.28c-9.2,0-16.48-1.53-21.63-4.54-5.05-2.95-7.5-7.15-7.5-12.85,0-2.06.45-3.98,1.33-5.68.71-1.38,1.49-2.43,2.32-3.12,2.25,1.71,5.37,3.21,9.27,4.46,4.25,1.36,8.82,2.06,13.57,2.06,3.32,0,3.82-1.6,3.82-2.56,0-.61-.08-1.11-.25-1.55l-.28-.75-.79.11c-.23.03-.53.05-.88.05h-.66c-8.23,0-14.87-1.64-19.75-4.87-5.5-3.63-8.18-8.61-8.18-15.22s2.41-11.89,7.37-16c5.5-4.54,13.2-6.84,22.9-6.84,4.81,0,9.35.51,13.51,1.53,4.01.98,7.5,2.28,10.39,3.87.61,1.5.92,3.69.92,6.54,0,4.25-1.08,7.6-3.21,9.97-1.97-1-4.33-1.84-7.01-2.52-3-.76-5.76-1.14-8.18-1.14-3.28,0-4.25.16-4.69.27-2,.62-2.3,2.03-2.3,2.82v.3c0,.24,0,.73.38,1.09l.33.31.45-.04c.41-.04.96-.06,1.65-.06h1.44c4.42,0,8.61.68,12.46,2.01,3.78,1.31,6.91,3.44,9.29,6.31,2.63,3.23,3.96,7.39,3.96,12.36,0,7.88-2.63,13.65-8.04,17.64-5.43,4-12.82,6.03-21.99,6.03Z"/>
      <path class="cls-1" d="M15.83,182.76c-4.7,0-8.5-1.14-11.29-3.38-3.06-2.38-4.54-5.81-4.54-10.48v-56.96c0-1.32,2.05-2.47,5.78-3.21,4.31-.86,11.09-1.3,20.17-1.3h33.99c.96,1.69,1.69,3.54,2.18,5.5.54,2.17.81,4.13.81,5.84,0,3.79-.73,6.64-2.16,8.49-1.39,1.79-3.3,2.67-5.83,2.67h-24.14c-2.98,0-3.22,2.1-3.22,2.74v.48c0,.19,0,.78.42,1.19l.29.29h28.45c.56,1.08,1.06,2.4,1.49,3.94.45,1.92.68,3.67.68,5.18,0,4.27-.74,7.67-2.19,10.14h-12.44c-6.2,0-10.3.23-12.55.71-3.01.64-3.9,1.03-4.33,1.29-1.04.72-1.25,1.61-1.25,2.23,0,.92.48,1.69,1.34,2.19l.38.22.42-.14c2.01-.65,4.14-1.12,6.34-1.4,2.93-.27,6.18-.41,9.64-.41h16.3c2.11,3.17,3.18,7,3.18,11.4,0,2.61-.33,5.14-.98,7.52-.58,2.13-1.44,3.9-2.55,5.25H15.83Z"/>
      <path class="cls-1" d="M118.7,183.77c-4.73,0-8.61-1.34-11.51-3.99-3.4-3.03-5.12-7.73-5.12-13.99,0-2.75.13-5.2.38-7.28.26-2.14.44-3.67.54-4.59.1-.91.21-1.75.32-2.54.13-.85.19-2.06.19-3.68,0-1.76-.25-3.03-.78-3.88-.6-.98-1.5-1.49-2.59-1.49-.91,0-1.73.21-2.44.61l-.55.31.82,10.27c-.71,4.04-1.07,8.36-1.07,12.86s.95,8.48,2.82,12.15c-3.67,3.48-8.79,5.24-15.24,5.24-3.8,0-7.13-1-9.9-2.99-3.19-2.22-4.73-5.07-4.73-8.71v-29.31l-.18-.26c-2.22-3.12-3.35-7.05-3.35-11.67s1.04-8.33,3.08-11.61h10.12c2.25,0,4.16.71,5.82,2.18-1.48,1.54-2.2,2.87-2.2,4.07,0,1.79,1.16,2.86,3.1,2.86h.58l.29-.5c1.66-2.86,4.24-5.27,7.67-7.17,3.45-1.91,7.43-2.87,11.83-2.87,6.64,0,12.1,1.64,16.21,4.88,5.15,4.05,7.76,10.48,7.76,19.1l-.18,12.26c0,3,.34,5.45,1.02,7.3.66,1.8,1.78,3.27,3.34,4.36,0,.14,0,.32,0,.57v1.08c0,5.2-1.5,9.28-4.46,12.13-2.97,2.86-6.86,4.3-11.58,4.3Z"/>
      <path class="cls-1" d="M170.54,184.55c-10.05,0-18.16-3.13-24.11-9.31-5.96-6.19-8.97-14.63-8.97-25.09s3.42-18.79,10.15-24.83c6.01-5.39,13.64-8.13,22.69-8.13,8.05,0,14.8,2,20.06,5.94,5.25,3.93,7.8,9.12,7.8,15.88,0,4.58-1.42,8.34-4.23,11.19-2.81,2.84-6.57,4.28-11.18,4.28-3.74,0-6.88-1-9.35-2.98-2.47-1.99-3.89-4.51-4.34-7.71l-.12-.86h-.87c-3.28,0-3.63,2.04-3.63,2.92,0,3.21,1.57,6.17,4.67,8.79,3.48,3.02,7.86,4.55,13.01,4.55,4.67,0,8.68-.94,11.91-2.8,1.55,2.74,2.33,6.04,2.33,9.82,0,4.84-2.04,8.88-6.23,12.35-4.82,3.98-11.42,6-19.61,6Z"/>
      <path class="cls-1" d="M249.72,183.77c-2.84,0-5.48-.68-7.83-2.02-2.33-1.33-3.96-3.21-4.96-5.73l-.25-.63h-.68c-1.9,0-3.04,1.11-3.04,2.98,0,1.13.5,2.29,1.53,3.54-2.4,1.24-5.82,1.87-10.17,1.87-7.1,0-12.83-1.94-17.03-5.76-4.17-3.8-6.29-9.21-6.29-16.09s2.24-12.24,6.65-15.98c4.06-3.38,9.43-5.1,15.95-5.1,2.25,0,4.46.16,6.56.47,1.7.33,2.11.42,2.19.45l.94.26.31-.93c.15-.5.22-.92.22-1.31,0-1.08-.6-2.49-3.44-3.08-1.82-.37-4.2-.56-7.09-.56-5.77,0-10.83,1.11-15.06,3.3-1.55-3.01-2.33-6.78-2.33-11.23,0-2.49.28-4.39.82-5.65,2.76-1.23,6.27-2.33,10.44-3.29,4.34-1,8.98-1.5,13.79-1.5,9.85,0,17.37,2.16,22.35,6.41,4.93,4.21,7.44,10.31,7.44,18.11v11.74c0,2.98.34,5.43,1.02,7.29.66,1.8,1.78,3.27,3.34,4.36,0,.14,0,.32,0,.57v1.08c0,5.35-1.62,9.56-4.83,12.5-2.83,2.61-6.39,3.93-10.58,3.93ZM230.67,155.98c-2.23,0-3.52,1.19-3.52,3.28,0,.95.38,3.16,3.93,3.16,1.63,0,2.88-.43,3.71-1.29.83-.86,1.24-2.21,1.24-4.14v-1h-5.37Z"/>
      <path class="cls-1" d="M319.29,183.77c-4.73,0-8.61-1.34-11.51-3.99-3.4-3.03-5.12-7.73-5.12-13.99,0-2.75.13-5.2.38-7.28.26-2.14.44-3.67.54-4.59.1-.9.21-1.75.33-2.54.13-.85.19-2.06.19-3.68,0-1.76-.25-3.03-.78-3.88-.6-.98-1.5-1.49-2.59-1.49-.91,0-1.73.21-2.44.61l-.55.31.82,10.27c-.71,4.04-1.07,8.36-1.07,12.86s.95,8.48,2.82,12.15c-3.67,3.48-8.79,5.24-15.24,5.24-3.8,0-7.13-1-9.9-2.99-3.19-2.22-4.73-5.07-4.73-8.71v-29.31l-.19-.26c-2.22-3.12-3.35-7.05-3.35-11.67s1.04-8.33,3.08-11.61h10.12c2.25,0,4.16.71,5.82,2.18-1.48,1.54-2.2,2.87-2.2,4.07,0,1.79,1.16,2.86,3.1,2.86h.58l.29-.5c1.66-2.86,4.24-5.27,7.67-7.17,3.45-1.91,7.43-2.87,11.83-2.87,6.64,0,12.1,1.64,16.21,4.88,5.15,4.05,7.76,10.48,7.76,19.1l-.18,12.26c0,2.99.34,5.44,1.02,7.3.65,1.8,1.78,3.27,3.34,4.36,0,.14,0,.32,0,.57v1.08c0,5.2-1.5,9.28-4.46,12.13-2.97,2.86-6.86,4.3-11.58,4.3Z"/>
      <path class="cls-1" d="M363.85,183.77c-6.27,0-11.32-1.75-15.01-5.21-3.67-3.44-5.52-8.62-5.52-15.41v-16.31h2.71c3.48,0,4-1.87,4-2.98,0-.24-.05-.54-.15-.96l-.19-.76h-13.45c-.71-2.51-1.06-5.32-1.06-8.37s.22-5.77.66-7.79c2.25-1.44,5.32-3.6,9.12-6.41l.22-.17.11-.26c1.12-2.73,2.61-7.11,4.4-13.03.18-.61.39-1.2.62-1.78,2.9-.69,6.24-1.05,9.93-1.05s7.26.36,10.8,1.07v14.86h10.81c2.01,3.24,3.02,7.07,3.02,11.4,0,2.06-.29,4.21-.87,6.39-.51,1.95-1.23,3.65-2.14,5.06h-9.03v10.04c0,7.16,4.03,8.67,7.41,8.67h1.81c.68,2.63,1.03,4.95,1.03,6.91,0,5.25-1.58,9.14-4.83,11.91-3.25,2.76-8.09,4.16-14.39,4.16Z"/>
      <path class="cls-1" d="M435.81,183.77c-2.84,0-5.48-.68-7.83-2.02-2.33-1.33-3.96-3.21-4.96-5.73l-.25-.63h-.68c-1.9,0-3.04,1.11-3.04,2.98,0,1.13.5,2.29,1.53,3.54-2.41,1.24-5.82,1.87-10.17,1.87-7.1,0-12.83-1.94-17.03-5.76-4.17-3.8-6.29-9.21-6.29-16.09s2.24-12.24,6.65-15.98c4.06-3.38,9.43-5.1,15.94-5.1,2.25,0,4.46.16,6.56.47,1.71.33,2.11.42,2.19.45l.94.26.31-.93c.15-.49.22-.92.22-1.31,0-1.08-.6-2.49-3.43-3.08-1.82-.37-4.2-.56-7.09-.56-5.77,0-10.83,1.11-15.06,3.3-1.55-3.01-2.33-6.78-2.33-11.23,0-2.49.28-4.39.82-5.65,2.76-1.23,6.27-2.33,10.44-3.29,4.34-1,8.98-1.5,13.79-1.5,9.85,0,17.37,2.16,22.35,6.41,4.93,4.21,7.44,10.3,7.44,18.11v11.74c0,2.98.34,5.43,1.02,7.29.66,1.81,1.78,3.27,3.34,4.36,0,.14,0,.32,0,.57v1.08c0,5.35-1.62,9.56-4.83,12.5-2.83,2.61-6.39,3.93-10.58,3.93ZM416.77,155.98c-2.23,0-3.52,1.19-3.52,3.28,0,.95.38,3.16,3.94,3.16,1.63,0,2.88-.43,3.71-1.29.83-.86,1.24-2.21,1.24-4.14v-1h-5.37Z"/>
      <path class="cls-1" d="M504.63,183.77c-2.92,0-5.47-.62-7.59-1.84-2.47-1.4-4.22-3.33-5.21-5.74l-.25-.62h-.67c-1.9,0-3.04,1.11-3.04,2.98,0,.79.27,1.63.83,2.57.28.47.61.92,1,1.33-2.01.88-4.5,1.32-7.42,1.32-4.88,0-9.51-1.14-13.76-3.39-4.22-2.23-7.62-5.66-10.1-10.17-2.9-5.22-4.37-11.64-4.37-19.1,0-9.9,2.79-17.77,8.31-23.38,5.51-5.6,12.65-8.45,21.24-8.45,5.08,0,9.57.97,13.32,2.89l.65.33.51-.51c.63-.63.95-1.33.95-2.09,0-2.54-3.74-3.65-4.97-4.01-2.59-.77-5.23-1.2-7.86-1.28-.08-3.44-.56-6.32-1.45-8.59,1.92-2.14,4.03-3.78,6.29-4.89,2.4-1.18,5.54-1.78,9.32-1.78,4.52,0,8.22,1.26,11.01,3.76,2.87,2.69,4.28,6.25,4.28,10.87v39.53c0,6.01,1.47,10.1,4.36,12.19,0,.14.01.33.01.57v1.08c0,5.35-1.62,9.56-4.83,12.5-2.83,2.61-6.39,3.93-10.58,3.93ZM486.49,139.63c-.78,0-2.18.34-2.77,2.64-.34,1.35-.51,3.93-.51,7.88v6.11c0,1.3.18,2.2.58,2.81.32.51.97,1.12,2.22,1.12.91,0,1.61-.24,2.08-.71l.29-.29v-8.44c0-3.85.18-7.01.53-9.38l.07-.5-.36-.36c-.58-.58-1.32-.89-2.14-.89Z"/>
      <path class="cls-1" d="M555.79,184.55c-9.87,0-17.77-2.83-23.5-8.4-6.32-6.08-9.52-14.48-9.52-24.95s3.02-18.85,8.97-24.87c5.95-6.02,13.88-9.08,23.58-9.08s17.63,3.18,23.59,9.45c5.94,6.28,8.95,14.61,8.95,24.74s-2.9,18.27-8.61,24.19c-5.71,5.92-13.59,8.92-23.45,8.92ZM554.89,139.21c-.82,0-1.56.31-2.15.89l-.33.33.04.47c.36,3.92.54,7.09.54,9.43v10.9l.29.29c.47.47,1.17.71,2.09.71,1.24,0,1.89-.61,2.22-1.12.39-.62.58-1.51.58-2.81v-8.56c0-3.96-.17-6.53-.51-7.88-.58-2.3-1.98-2.64-2.76-2.64Z"/>
      <path class="cls-1" d="M621.37,184.55c-9.2,0-16.48-1.53-21.63-4.53-5.05-2.95-7.5-7.15-7.5-12.85,0-2.07.45-3.98,1.33-5.68.71-1.38,1.49-2.43,2.32-3.12,2.25,1.71,5.37,3.2,9.27,4.46,4.25,1.36,8.82,2.06,13.57,2.06,3.32,0,3.82-1.6,3.82-2.56,0-.61-.08-1.11-.25-1.55l-.28-.75-.8.12c-.22.03-.52.05-.87.05h-.66c-8.23,0-14.87-1.64-19.75-4.87-5.5-3.63-8.18-8.61-8.18-15.22s2.41-11.89,7.37-16c5.5-4.54,13.2-6.84,22.9-6.84,4.81,0,9.35.51,13.51,1.53,4.01.98,7.5,2.28,10.39,3.87.61,1.5.92,3.7.92,6.54,0,4.25-1.08,7.6-3.21,9.97-1.98-1-4.33-1.85-7.02-2.52-3-.76-5.75-1.14-8.18-1.14-3.28,0-4.25.16-4.69.27-2,.62-2.3,2.03-2.3,2.82v.3c0,.23,0,.72.36,1.07l.33.33.46-.04c.41-.04.96-.06,1.65-.06h1.44c4.42,0,8.61.68,12.46,2.01,3.78,1.31,6.91,3.44,9.29,6.31,2.63,3.23,3.96,7.39,3.96,12.36,0,7.77-2.71,13.71-8.04,17.64-5.43,4-12.82,6.03-21.99,6.03Z"/>
    </g>
    <text class="cls-5" transform="translate(47.08 242.13)"><tspan class="cls-2" x="0" y="0">POR BE</tspan><tspan class="cls-4" x="187.93" y="0">L</tspan><tspan class="cls-3" x="216.54" y="0">O HORI</tspan><tspan class="cls-6" x="403.13" y="0">Z</tspan><tspan class="cls-3" x="433.73" y="0">ONTE</tspan></text>
  </g>
</svg>